{"title":"Camp.Rock.2.The.Final.Jam.2010.720p.BRRip.x264.Feel-Free","uid":6074643,"size":1862097174,"categoryP":"video","categoryS":"hd___movies","magnet":"?xt=urn:btih:630c1d7d3407a2a13759f4c62e98698f1ffc7c4c&amp;dn=Camp.Rock.2.The.Final.Jam.2010.720p.BRRip.x264.Feel-Free&amp;tr=udp%3A%2F%2Ftracker.openbittorrent.com%3A80&amp;tr=udp%3A%2F%2Fopen.demonii.com%3A1337&amp;tr=udp%3A%2F%2Ftracker.coppersurfer.tk%3A6969&amp;tr=udp%3A%2F%2Fexodus.desync.com%3A6969","seeders":1,"leechers":0,"uploader":"hiest","files":9,"time":1293773135,"description":"Genre:Comedy | Family | Musical\nLanguage:English\nIMDb:http://www.imdb.com/title/tt1252380/\nSource:BluRay.x264.DTS-WiKi\nSubtitles:Romana\n\n\n\nFormat : Matroska\nFile size : 1.73 GiB\nDuration : 1h 44mn\nOverall bit rate : 2 375 Kbps\n\n\nVideo\nFormat settings, CABAC : Yes\nFormat settings, ReFrames : 4 frames\nCodec ID : V_MPEG4/ISO/AVC\nDuration : 1h 44mn\nBit rate : 2 000 Kbps\nWidth : 1 280 pixels\nHeight : 720 pixels\nDisplay aspect ratio : 16:9\nFrame rate mode : Variable\nFrame rate : 23.976 fps\nColor space : YUV\nChroma subsampling : 4:2:0\nBit depth : 8 bits\nScan type : Progressive\nBits/(Pixel*Frame) : 0.091\nStream size : 1.41 GiB (82%)\nWriting library : x264 \n\nAudio\nID : 2\nFormat : AC-3\nFormat/Info : Audio Coding 3\nMode extension : CM (complete main)\nCodec ID : A_AC3\nDuration : 1h 44mn\nBit rate mode : Constant\nBit rate : 384 Kbps\nChannel(s) : 6 channels\nChannel positions : Front: L C R, Side: L R, LFE\nSampling rate : 48.0 KHz\nBit depth : 16 bits\nVideo delay : -1mn 5s\nStream size : 286 MiB (16%)\nLanguage : English","torrent":{"xt":"urn:btih:630c1d7d3407a2a13759f4c62e98698f1ffc7c4c","amp;dn":"Camp.Rock.2.The.Final.Jam.2010.720p.BRRip.x264.Feel-Free","amp;tr":["udp%3A%2F%2Ftracker.openbittorrent.com%3A80","udp%3A%2F%2Fopen.demonii.com%3A1337","udp%3A%2F%2Ftracker.coppersurfer.tk%3A6969","udp%3A%2F%2Fexodus.desync.com%3A6969"],"infoHash":"630c1d7d3407a2a13759f4c62e98698f1ffc7c4c","infoHashBuffer":{"type":"Buffer","data":[99,12,29,125,52,7,162,161,55,89,244,198,46,152,105,143,31,252,124,76]},"announce":[],"urlList":[]}}